<?xml version="1.0" encoding="utf-8"?>
<svg version="1.1" id="Layer_1" x="0px" y="0px" width="100%" viewBox="0 0 2000 2000" enable-background="new 0 0 2000 2000" xmlns="http://www.w3.org/2000/svg">
  <path fill="#E82C35" opacity="1.000000" stroke="none" d=" M779.069519,1062.423340 C782.947693,1051.555908 789.647156,1042.526123 794.239380,1032.400024 C794.629395,1031.539917 795.555237,1030.943359 796.708618,1031.011841 C797.703918,1031.071045 798.706482,1031.003662 799.705811,1031.003662 C896.152588,1031.002686 992.599365,1031.002197 1089.046143,1031.005127 C1091.997803,1031.005127 1095.710571,1030.083740 1093.992310,1036.328735 C1098.124512,1030.608643 1103.256592,1030.962646 1108.447754,1030.965454 C1203.228760,1031.016602 1298.009888,1031.002686 1392.790894,1031.002686 C1394.738525,1031.002686 1396.686157,1031.002686 1399.676270,1031.002686 C1393.544800,1041.974243 1387.847290,1052.169067 1381.991455,1062.682861 C1379.790405,1064.639038 1377.448608,1065.253662 1374.850098,1065.229858 C1372.184937,1065.205322 1369.517822,1065.254883 1366.851562,1065.254883 C1225.366943,1065.256104 1083.882202,1065.263184 942.397522,1065.252197 C891.265015,1065.248291 840.132385,1065.305908 789.000061,1065.191406 C785.666321,1065.183960 781.867432,1066.293091 779.069519,1062.423340 z"/>
  <path fill="#622B92" opacity="1.000000" stroke="none" d=" M698.491516,733.644775 C699.483337,742.151978 698.647461,750.239502 698.036682,758.340881 C697.895508,760.213257 697.264282,761.089050 695.358704,761.005310 C694.028442,760.946838 692.693054,761.009827 691.359985,761.009827 C561.379517,761.010681 431.399048,761.010559 301.418579,761.010559 C300.752014,761.010559 300.085358,761.017578 299.418884,761.008850 C294.248108,760.941101 294.058563,760.737671 296.477936,756.051758 C300.183716,748.874329 304.042389,741.775818 308.001709,734.327393 C310.202850,732.362183 312.543243,731.706604 315.142090,731.777649 C316.472443,731.814087 317.807098,731.747314 319.139954,731.747314 C442.264679,731.742737 565.389404,731.733215 688.514160,731.791260 C691.751953,731.792786 695.226990,730.949585 698.491516,733.644775 z"/>
  <path fill="#DE2453" opacity="1.000000" stroke="none" d=" M626.833923,973.625488 C618.676941,983.120667 608.427612,990.116760 599.169373,998.256531 C597.585693,999.648926 595.656799,998.965759 593.903381,998.966919 C535.407715,999.007507 476.912018,999.000366 418.416321,999.000366 C356.087585,999.000366 293.758820,999.001221 231.430084,998.999268 C225.117828,998.999084 225.076447,998.970337 227.935272,993.347351 C231.343185,986.644348 234.831100,979.982056 238.588928,973.126038 C241.356094,971.626404 244.050552,971.754700 246.707336,971.754517 C370.597809,971.747375 494.488251,971.725647 618.378723,971.788330 C621.142456,971.789734 624.093201,971.227112 626.833923,973.625488 z"/>
  <path fill="#D9215F" opacity="1.000000" stroke="none" d=" M627.420349,973.900757 C500.601074,974.025757 374.083679,974.015259 247.566299,973.983521 C244.925812,973.982849 242.225006,974.403564 239.283661,973.117798 C242.295914,966.259583 245.715607,959.578003 249.086243,952.871643 C249.767181,951.516785 250.739838,950.897278 252.241394,950.995972 C253.070740,951.050476 253.906876,951.000122 254.739944,951.000122 C385.366516,950.999878 515.993042,950.999817 646.619629,950.999817 C647.782654,950.999817 648.945679,950.999817 651.288452,950.999817 C643.355591,959.383667 635.830994,966.862366 627.420349,973.900757 z"/>
  <path fill="#EC352E" opacity="1.000000" stroke="none" d=" M778.588135,1062.125488 C781.697083,1063.453735 784.749023,1062.985474 787.720215,1062.985718 C985.452637,1063.001465 1183.185059,1063.000000 1381.375244,1063.000977 C1379.698486,1067.026367 1377.358154,1070.958984 1375.503662,1075.108643 C1374.317871,1077.761719 1372.299438,1076.967651 1370.496094,1076.971680 C1349.341919,1077.019775 1328.187622,1077.002441 1307.033325,1077.002563 C1279.049683,1077.002686 1251.065796,1076.976318 1223.082397,1077.048950 C1220.653320,1077.055298 1218.700195,1077.197021 1219.870605,1073.082275 C1216.434448,1078.099854 1211.804077,1076.991333 1207.500244,1076.991943 C1117.386108,1077.006104 1027.271973,1077.002808 937.157898,1077.002563 C929.055054,1077.002563 929.064453,1077.004639 930.948364,1068.744751 C931.091553,1068.116699 930.967285,1067.427856 930.967285,1066.267700 C929.854248,1067.554932 928.581116,1068.375122 928.306030,1069.450806 C926.468933,1076.631958 921.398254,1077.146606 915.057251,1077.117432 C868.751892,1076.904175 822.445190,1077.003906 776.138855,1077.000854 C770.129761,1077.000366 770.129578,1076.989624 773.056702,1071.716431 C774.799805,1068.576294 776.543274,1065.436401 778.588135,1062.125488 z"/>
  <path fill="#4F2E93" opacity="1.000000" stroke="none" d=" M698.896484,733.560852 C568.915894,734.009338 438.998718,734.007629 308.624420,734.008423 C311.357574,727.876038 314.630341,721.781799 317.689606,715.582214 C318.650330,713.635193 319.902649,712.847107 321.964355,712.998047 C322.958008,713.070801 323.961609,713.006409 324.960724,713.006409 C446.852356,713.006165 568.744080,713.048279 690.635376,712.853821 C695.557983,712.845947 697.578613,714.483337 697.776245,718.802063 C697.995483,723.593506 699.665894,728.255554 698.896484,733.560852 z"/>
  <path fill="#E82C37" opacity="1.000000" stroke="none" d=" M215.397858,1055.460693 C218.770966,1048.302124 222.546890,1041.639648 225.966705,1034.799072 C227.309616,1032.112793 228.761688,1030.926758 231.934540,1030.929321 C341.742828,1031.016846 451.551208,1031.001831 561.359558,1031.011230 C562.465759,1031.011353 563.571960,1031.141357 566.085571,1031.298950 C561.075073,1035.130005 556.210144,1036.491577 551.825806,1038.468872 C536.058899,1045.579468 519.632080,1050.991211 503.229218,1056.437866 C502.080292,1056.819336 500.999054,1056.941040 499.452454,1057.062744 C449.976929,1059.651245 400.869904,1057.809448 351.780273,1058.185425 C309.659454,1058.508057 267.534088,1058.294800 225.410980,1058.188965 C222.072418,1058.180542 218.284409,1059.254272 215.397858,1055.460693 z"/>
  <path fill="#DB2358" opacity="1.000000" stroke="none" d=" M1672.000000,999.000183 C1646.508179,999.000183 1621.516235,999.011414 1596.524414,998.970093 C1595.127197,998.967773 1593.132446,999.749390 1592.465576,998.300232 C1591.937988,997.153931 1593.256470,995.720154 1593.961060,994.428467 C1599.053955,985.092041 1603.988159,975.668823 1608.933960,966.252747 C1610.458008,963.351135 1612.516602,960.532227 1613.499512,957.594177 C1615.584595,951.360107 1619.677734,950.873413 1625.271606,950.895325 C1672.255615,951.079163 1719.240601,951.000000 1766.225342,951.000000 C1768.020142,951.000000 1769.814819,951.000000 1772.419312,951.000000 C1768.718994,958.104675 1765.402710,964.609314 1761.960083,971.046326 C1757.796265,978.831604 1753.277100,986.438660 1749.415527,994.368225 C1747.725708,997.838074 1745.913452,999.138733 1741.976318,999.103149 C1718.819214,998.893860 1695.659058,999.000183 1672.000000,999.000183 z"/>
  <path fill="#DA215D" opacity="1.000000" stroke="none" d=" M1130.951660,977.395386 C1136.028564,969.730530 1142.933716,964.083557 1148.070435,957.090942 C1152.275879,951.366150 1157.210205,950.903687 1163.383911,950.913147 C1247.535278,951.041931 1331.687012,950.999878 1415.838623,950.999878 C1417.777222,950.999878 1419.715820,950.999878 1422.559326,950.999878 C1417.334839,960.767883 1412.513916,969.781250 1407.373047,978.948364 C1404.376587,980.236633 1401.549561,980.254150 1398.713257,980.254150 C1312.528320,980.253113 1226.343506,980.277832 1140.158569,980.190491 C1137.001831,980.187256 1133.363647,981.257812 1130.951660,977.395386 z"/>
  <path fill="#E92F33" opacity="1.000000" stroke="none" d=" M1704.999268,1077.007202 C1659.902100,1077.007202 1615.304810,1077.007202 1569.930176,1077.007202 C1575.469360,1066.812012 1580.663330,1057.219604 1585.890991,1047.645508 C1588.242920,1043.338257 1590.910400,1039.182495 1592.964478,1034.740479 C1594.383423,1031.671997 1596.294922,1030.921875 1599.507202,1030.932739 C1633.666626,1031.048706 1667.826660,1031.004517 1701.986450,1031.004517 C1717.313599,1031.004517 1732.640869,1031.004639 1748.464233,1031.004639 C1746.593140,1037.723755 1742.331543,1042.958496 1739.483032,1048.852295 C1735.651245,1056.780640 1731.186646,1064.402954 1727.004028,1072.162231 C1725.173706,1075.558228 1722.843262,1077.602417 1718.484619,1077.112183 C1714.206299,1076.630737 1709.831543,1077.007202 1704.999268,1077.007202 z"/>
  <path fill="#DE2453" opacity="1.000000" stroke="none" d=" M1081.932373,974.575378 C1081.403076,982.073853 1080.665894,989.101501 1080.003174,996.136292 C1079.834961,997.922546 1079.041138,998.910828 1077.228638,998.970276 C1076.063477,999.008484 1074.896606,998.999451 1073.730469,998.999512 C981.929626,999.000610 890.128784,999.001160 798.327942,998.999023 C792.103210,998.998901 792.031311,998.952148 794.965759,993.252991 C798.180298,987.009888 801.545593,980.844421 805.005981,974.322998 C807.780273,971.737732 810.954651,971.753479 814.143616,971.750977 C835.298950,971.734436 856.454224,971.745789 877.609558,971.745850 C942.241577,971.746094 1006.873657,971.715027 1071.505493,971.811890 C1074.991211,971.817139 1078.963379,970.597229 1081.932373,974.575378 z"/>
  <path fill="#2D3F9D" opacity="1.000000" stroke="none" d=" M641.613281,658.876953 C650.490967,663.909363 656.341553,671.297485 662.342773,679.626831 C547.085938,679.626831 432.583466,679.626831 317.700592,679.626831 C321.250397,673.171448 324.777679,666.757141 328.593445,660.152283 C330.723572,658.301025 332.936554,657.791992 335.349670,657.786316 C337.515076,657.781250 339.680847,657.746033 341.846558,657.745972 C437.473541,657.744019 533.100525,657.750244 628.727539,657.726868 C632.900818,657.725891 637.041992,657.836060 641.613281,658.876953 z"/>
  <path fill="#D01A79" opacity="1.000000" stroke="none" d=" M1073.556885,892.706787 C1073.855347,900.919739 1071.274414,908.495850 1070.734009,916.352356 C1070.623901,917.952881 1069.444702,919.357971 1067.283691,919.019348 C1066.308472,918.866516 1065.288940,918.998169 1064.289429,918.998169 C983.332153,918.998352 902.374939,918.999023 821.417664,918.997131 C815.132751,918.997009 814.927795,918.875183 817.981079,913.364990 C821.619751,906.798462 824.455994,899.787354 829.004639,893.317993 C834.285583,889.217712 840.197632,891.191895 845.665527,891.129883 C866.238159,890.896545 886.817810,890.965454 907.393982,891.022827 C927.474670,891.078857 947.556213,891.101990 967.636169,891.098816 C987.544983,891.095703 1007.455017,891.142639 1027.364746,891.026611 C1041.135620,890.946289 1054.908447,891.168579 1068.680298,890.958618 C1070.365234,890.932922 1072.031494,891.027893 1073.556885,892.706787 z"/>
  <path fill="#284CA5" opacity="1.000000" stroke="none" d=" M641.913818,658.664673 C640.116272,660.034058 637.949524,660.005432 635.773560,660.005127 C533.794128,659.992188 431.814728,659.986572 329.358643,659.970947 C332.100616,653.289612 335.420227,646.663269 338.486572,639.921814 C339.656769,637.349121 341.680054,638.011536 343.530029,638.009399 C371.997528,637.976135 400.465027,637.985901 428.932556,637.985962 C474.880127,637.986023 520.829407,637.757446 566.774414,638.100159 C584.889404,638.235229 602.856323,640.428284 620.027161,646.910889 C627.749878,649.826538 634.901062,653.778259 641.913818,658.664673 z"/>
  <path fill="#D9215F" opacity="1.000000" stroke="none" d=" M1082.450928,974.800110 C1079.636841,973.697815 1076.935181,974.005859 1074.285889,974.005676 C984.884705,973.998840 895.483521,974.000000 805.624573,974.000366 C808.696838,967.193542 812.319580,960.431763 815.698425,953.550171 C816.665527,951.580322 817.860901,950.802551 819.922913,950.989014 C820.749084,951.063660 821.587708,950.999878 822.420654,950.999878 C908.047546,950.999817 993.674500,950.999329 1079.301392,951.000854 C1085.678833,951.000977 1085.811401,951.503418 1084.635620,957.906982 C1083.629639,963.385193 1083.375610,969.001465 1082.450928,974.800110 z"/>
  <path fill="#D01A79" opacity="1.000000" stroke="none" d=" M1431.535156,894.594116 C1428.238281,901.973938 1424.610107,908.933838 1421.067261,915.936829 C1419.980225,918.085815 1418.457886,919.228638 1415.995850,919.008789 C1415.170166,918.935120 1414.332031,918.998352 1413.499634,918.998352 C1332.922729,918.998413 1252.345947,918.998352 1171.769043,918.998352 C1169.982178,918.998352 1168.195312,918.998413 1165.658447,918.998413 C1171.398804,909.428406 1180.273926,903.558472 1186.579102,895.100098 C1189.849976,893.214722 1193.069946,892.733276 1196.472168,892.733826 C1272.171631,892.745972 1347.870972,892.724854 1423.570435,892.790405 C1426.168579,892.792664 1428.947632,892.288208 1431.535156,894.594116 z"/>
  <path fill="#DE2551" opacity="1.000000" stroke="none" d=" M1130.645020,977.037231 C1133.140259,978.688477 1135.747192,977.968506 1138.174927,977.969543 C1225.278931,978.005920 1312.382812,977.996033 1399.486816,978.021240 C1401.788818,978.021912 1404.157593,977.561340 1406.719238,978.847473 C1404.836914,984.922485 1401.820068,990.337036 1398.846436,995.792175 C1397.442139,998.368347 1395.723022,999.055115 1392.942749,999.053223 C1300.173096,998.989441 1207.403564,999.000244 1114.633911,999.000183 C1113.675171,999.000183 1112.716431,999.000183 1110.471680,999.000183 C1117.380859,991.005981 1123.543945,983.819458 1130.645020,977.037231 z"/>
  <path fill="#A11E8C" opacity="1.000000" stroke="none" d=" M1065.493896,811.648193 C1064.885376,820.315735 1063.901001,828.614868 1063.024658,836.925537 C1062.871826,838.376221 1062.354492,839.038574 1060.913208,838.998291 C1060.080811,838.975037 1059.246948,839.014038 1058.413696,839.014038 C986.083740,839.014832 913.753845,839.014709 841.423889,839.014648 C840.595276,839.014648 839.766724,839.014648 838.068726,839.014648 C843.341614,829.443787 848.348267,820.356140 853.652039,811.082764 C856.626648,809.761780 859.454956,809.746582 862.292175,809.746582 C927.038147,809.746765 991.784180,809.727478 1056.530151,809.792053 C1059.441650,809.794922 1062.578979,809.088013 1065.493896,811.648193 z"/>
  <path fill="#CB1785" opacity="1.000000" stroke="none" d=" M1431.990967,894.678345 C1350.501831,894.990723 1269.170288,894.984009 1187.362671,894.967529 C1193.327637,888.060913 1199.788574,881.182434 1206.194336,874.252930 C1207.624756,872.705505 1209.130737,871.947876 1211.360474,871.949707 C1288.153931,872.013733 1364.947266,872.004883 1441.740723,872.017151 C1442.371338,872.017273 1443.001831,872.162842 1444.532104,872.351379 C1440.249756,879.961792 1436.199219,887.160522 1431.990967,894.678345 z"/>
  <path fill="#532D93" opacity="1.000000" stroke="none" d=" M871.463013,742.407593 C875.127380,732.934448 880.134460,724.401123 884.657227,715.618530 C885.785156,713.428040 887.250183,712.968323 889.413025,712.988342 C896.565186,713.054443 903.718323,713.011047 910.871094,713.011047 C958.944397,713.010986 1007.017883,713.057861 1055.090820,712.925049 C1059.041870,712.914124 1060.642578,714.022644 1059.973267,717.930847 C1058.645874,725.681030 1057.307739,733.429321 1055.904541,741.591553 C1054.635986,743.636719 1052.924072,744.071045 1051.016235,744.142822 C1049.187866,744.211670 1047.359985,744.249695 1045.531128,744.249939 C990.827148,744.257446 936.123169,744.274048 881.419250,744.209290 C878.176941,744.205444 874.727051,744.992188 871.463013,742.407593 z"/>
  <path fill="#CB1785" opacity="1.000000" stroke="none" d=" M1073.917480,892.597656 C1060.067261,893.247070 1046.300903,893.678162 1032.534180,893.688110 C1017.981445,893.698669 1003.428772,893.164612 988.875610,893.137634 C976.938232,893.115479 965.000366,893.620056 953.062317,893.643188 C943.742065,893.661255 934.421082,893.148438 925.100464,893.147278 C915.778381,893.146057 906.456299,893.635986 897.134216,893.636597 C887.813660,893.637207 878.493103,893.151550 869.172546,893.150330 C859.850464,893.149170 850.528931,893.563965 841.205933,893.632202 C837.440063,893.659790 833.670959,893.252014 829.534912,893.021484 C832.412292,886.763611 835.835999,880.610291 838.826477,874.253174 C840.251160,871.224731 842.592834,872.035461 844.740479,872.032593 C878.898193,871.987183 913.055908,872.000549 947.213684,872.000549 C988.869446,872.000610 1030.525391,872.031677 1072.180908,871.942139 C1075.508911,871.934998 1077.810791,872.199280 1077.004272,876.357117 C1075.981079,881.631775 1075.000244,886.914612 1073.917480,892.597656 z"/>
  <path fill="#91218D" opacity="1.000000" stroke="none" d=" M1240.085571,817.309875 C1246.686646,809.709595 1253.532837,802.501587 1260.261719,795.185730 C1261.893066,793.412109 1263.689453,792.974060 1265.988403,792.975708 C1331.766724,793.023376 1397.545044,793.012268 1463.323364,793.033386 C1464.421143,793.033752 1465.627441,792.678528 1467.049194,793.926086 C1462.787231,801.682251 1458.476562,809.526978 1454.000122,817.689209 C1451.642212,819.352417 1449.341064,819.586304 1446.727783,819.558960 C1434.825317,819.434143 1422.919312,819.467529 1411.014648,819.496765 C1399.112305,819.526062 1387.209717,819.521057 1375.307373,819.532410 C1363.076660,819.544067 1350.845703,819.550781 1338.614868,819.545959 C1326.877563,819.541321 1315.140137,819.543457 1303.402832,819.545349 C1291.171631,819.547363 1278.939087,819.613586 1266.709473,819.504272 C1259.440674,819.439392 1252.157471,819.978638 1244.898071,819.185974 C1243.248413,819.005859 1241.546631,819.012146 1240.085571,817.309875 z"/>
  <path fill="#8D228E" opacity="1.000000" stroke="none" d=" M290.032410,805.392578 C289.932800,804.778748 290.047913,804.642090 290.088806,804.485901 C292.809875,794.092102 299.895752,792.744263 309.750549,792.770691 C440.967102,793.123108 572.184937,793.005981 703.402405,793.006470 C710.392517,793.006470 710.394775,793.009277 708.119629,799.678467 C707.327942,801.999023 706.521484,804.314636 705.418701,806.835693 C702.660156,809.809509 699.324829,809.209534 696.232849,809.217651 C668.591736,809.289795 640.950378,809.252686 613.309143,809.254639 C590.996338,809.256226 568.683472,809.277100 546.370667,809.234375 C543.397156,809.228699 540.330505,809.532532 537.286377,807.339600 C531.346130,802.159302 524.877014,800.472290 517.520447,799.836792 C497.433075,798.101379 477.341156,799.695923 457.275208,798.913757 C451.474365,798.687683 446.509308,799.090576 443.998474,805.693481 C441.649323,807.804016 439.092804,808.234863 436.348969,808.236511 C390.046478,808.264954 343.743958,808.294434 297.441559,808.185974 C294.853577,808.179932 291.983612,808.605286 290.032410,805.392578 z"/>
  <path fill="#CC1881" opacity="1.000000" stroke="none" d=" M257.328644,903.120483 C262.163940,893.169373 267.269012,883.688416 272.259674,874.147583 C273.274261,872.207947 274.713104,871.968384 276.641113,871.969910 C325.914917,872.008484 375.188873,872.042358 424.462494,871.937439 C429.515076,871.926697 428.149780,874.417664 426.690186,876.709229 C421.148193,885.410278 416.805725,894.764709 411.408508,903.877808 C408.647064,905.370178 405.956879,905.244385 403.303894,905.244934 C357.578857,905.255005 311.853821,905.284302 266.128876,905.206665 C263.220428,905.201721 260.073181,905.876404 257.328644,903.120483 z"/>
  <path fill="#A41E8C" opacity="1.000000" stroke="none" d=" M1239.586670,817.104004 C1260.307251,817.423279 1280.730103,817.284546 1301.156616,817.077148 C1319.748047,816.888306 1338.343018,816.971436 1356.935913,817.056274 C1374.379883,817.135925 1391.822510,817.445190 1409.266479,817.521362 C1423.252197,817.582458 1437.238647,817.439331 1451.224854,817.417358 C1451.870239,817.416382 1452.516235,817.715576 1453.498047,817.940796 C1450.397461,824.329285 1446.801147,830.572510 1443.598511,837.011658 C1442.219482,839.784180 1440.075928,838.975647 1438.110352,838.978271 C1404.967163,839.023376 1371.823975,839.010559 1338.680786,839.010559 C1300.874268,839.010620 1263.067749,839.010559 1225.261230,839.010559 C1223.458740,839.010559 1221.656250,839.010620 1218.921997,839.010620 C1226.091187,831.351440 1232.690552,824.301086 1239.586670,817.104004 z"/>
  <path fill="#D11B76" opacity="1.000000" stroke="none" d=" M256.826996,902.844360 C259.924683,902.781006 262.750061,902.984680 265.575500,902.985901 C311.527466,903.005798 357.479462,902.996338 403.431427,903.010498 C405.745758,903.011230 408.108337,902.698608 410.716064,903.882080 C410.351410,908.341003 406.585571,911.197815 405.456360,916.000671 C407.048279,916.000671 408.438477,916.000671 409.828705,916.000671 C430.256958,916.000610 450.688721,916.227356 471.112152,915.912842 C482.789459,915.732971 493.964752,912.875793 504.583740,906.946167 C511.667450,905.394531 518.490479,905.752869 525.290344,905.752502 C569.536682,905.750000 613.783142,905.710083 658.029297,905.813721 C661.355896,905.821472 665.150146,904.704895 667.935669,908.577576 C666.058777,911.790833 663.915405,914.478638 661.989868,917.314392 C661.123962,918.589478 660.122070,919.041870 658.698364,919.002197 C657.366638,918.965088 656.032898,918.999451 654.700073,918.999451 C521.583679,918.999634 388.467316,918.999573 255.350922,918.999207 C254.018112,918.999207 252.684662,918.966797 251.352615,918.997192 C248.807114,919.055115 248.527435,917.865234 249.594727,915.892151 C251.915909,911.601135 254.234863,907.308899 256.826996,902.844360 z"/>
  <path fill="#EB322F" opacity="1.000000" stroke="none" d=" M214.982376,1055.356689 C218.032944,1055.980103 221.015381,1056.015991 224.026352,1056.015259 C313.178162,1055.996460 402.329956,1055.996216 491.481750,1056.021362 C493.784821,1056.021973 496.155029,1055.559814 498.716614,1056.849854 C489.305878,1060.909302 479.036072,1062.549072 468.779755,1063.931152 C436.889893,1068.228516 404.814545,1065.334351 372.827240,1065.779053 C365.964142,1065.874512 361.434418,1067.495972 359.093689,1073.857056 C358.125366,1076.488647 356.574280,1077.068848 353.924561,1077.064453 C305.164948,1076.982300 256.405151,1077.005859 207.645401,1076.995605 C206.537231,1076.995361 205.429092,1076.865723 203.544815,1076.748047 C207.486679,1069.386353 211.156937,1062.531860 214.982376,1055.356689 z"/>
  <path fill="#F0652E" opacity="1.000000" stroke="none" d=" M943.461914,1127.406982 C942.811829,1121.704956 944.656311,1116.668091 945.041260,1111.455811 C945.118835,1110.404907 945.763184,1110.070190 946.679321,1110.044556 C947.678467,1110.016479 948.678467,1110.007324 949.678101,1110.007324 C1033.007568,1110.005981 1116.337036,1110.006348 1199.666504,1110.006592 C1200.496948,1110.006592 1201.327515,1110.006592 1202.907593,1110.006592 C1198.734497,1117.800781 1190.910034,1121.821899 1186.365479,1128.962402 C1181.403076,1129.701050 1176.742920,1129.227051 1172.091187,1129.229126 C1099.367432,1129.260498 1026.643677,1129.270508 953.920044,1129.205566 C950.513306,1129.202515 946.892883,1130.059326 943.461914,1127.406982 z"/>
  <path fill="#F8B62D" opacity="1.000000" stroke="none" d=" M952.066040,1211.419678 C952.597900,1204.616333 953.363831,1198.284180 953.982788,1191.937744 C954.185974,1189.854858 955.136841,1188.952148 957.156555,1189.011719 C957.821838,1189.031250 958.488403,1189.010742 959.154358,1189.010742 C1021.255554,1189.010620 1083.356689,1189.010864 1145.457886,1189.010986 C1146.555908,1189.010986 1147.653931,1189.010986 1150.397705,1189.010986 C1141.759766,1197.690796 1134.217529,1205.269409 1126.363525,1212.976685 C1122.992432,1213.953369 1119.887695,1214.274170 1116.702637,1214.272217 C1065.125977,1214.240967 1013.549194,1214.285522 961.972656,1214.187134 C958.645691,1214.180786 954.849976,1215.295654 952.066040,1211.419678 z"/>
  <path fill="#F2772E" opacity="1.000000" stroke="none" d=" M942.975220,1127.374268 C1021.402893,1127.004883 1099.638550,1127.000244 1177.874268,1127.009888 C1180.506714,1127.010254 1183.253662,1126.588623 1185.779297,1128.822021 C1181.519897,1134.550659 1175.788452,1138.899902 1171.420898,1144.913940 C1168.059204,1145.995483 1164.934937,1146.267944 1161.746826,1146.266968 C1090.991333,1146.247803 1020.235901,1146.272339 949.480469,1146.208618 C946.567261,1146.205933 943.431213,1146.909546 940.506592,1144.366455 C941.037659,1138.583008 941.910461,1133.162109 942.975220,1127.374268 z"/>
  <path fill="#CC1783" opacity="1.000000" stroke="none" d=" M1626.957642,897.392334 C1631.020386,889.090515 1635.051636,881.266174 1639.186279,873.496765 C1640.379272,871.254883 1642.691162,872.023926 1644.586548,872.022583 C1687.376099,871.993408 1730.165649,872.000122 1772.955200,872.000061 C1780.107422,872.000061 1787.259644,872.000061 1795.668457,872.000061 C1790.421265,881.384827 1785.554321,890.089539 1780.370117,898.948547 C1777.379761,900.234924 1774.556763,900.252808 1771.724243,900.252625 C1726.530518,900.250244 1681.336792,900.288208 1636.143188,900.186340 C1632.997314,900.179260 1629.355103,901.285889 1626.957642,897.392334 z"/>
  <path fill="#2C429F" opacity="1.000000" stroke="none" d=" M1851.937134,654.589355 C1848.390625,662.940979 1843.880493,670.393921 1839.635010,677.994751 C1838.197876,680.567444 1836.086914,679.959106 1834.064453,679.960449 C1791.112305,679.988708 1748.160034,679.981995 1705.207886,679.982056 C1698.439453,679.982056 1691.671021,679.982056 1684.016968,679.982056 C1689.676270,670.933167 1694.018921,662.113159 1698.640137,653.091797 C1701.450928,651.852417 1704.099487,651.748596 1706.775146,651.748901 C1752.195312,651.754272 1797.615479,651.712463 1843.035522,651.810364 C1846.059814,651.816833 1849.498779,650.949219 1851.937134,654.589355 z"/>
  <path fill="#FACB2D" opacity="1.000000" stroke="none" d=" M891.828674,1208.623291 C888.650940,1217.634399 883.551392,1225.367310 879.264526,1233.528687 C877.973999,1235.985718 876.135010,1234.947876 874.585571,1234.952515 C847.431335,1235.035156 820.276733,1235.012207 793.122253,1235.012207 C772.131653,1235.012329 751.141052,1235.012329 730.150452,1235.012329 C728.529419,1235.012329 726.908386,1235.012329 724.460510,1235.012329 C729.289856,1226.007324 733.774780,1217.644531 738.574219,1209.118652 C740.864624,1207.142700 743.280334,1206.781982 745.837219,1206.779175 C792.518311,1206.726807 839.199463,1206.695068 885.880493,1206.817871 C887.844116,1206.822998 889.914368,1206.696045 891.828674,1208.623291 z"/>
  <path fill="#8D228E" opacity="1.000000" stroke="none" d=" M1065.902588,811.584961 C997.559998,812.008423 929.286926,812.008240 861.013794,811.981201 C858.876648,811.980347 856.674866,812.400330 854.282593,811.151855 C855.593567,804.943237 859.932129,800.350647 862.150757,794.680542 C862.606995,793.514526 863.639954,792.977905 864.947083,793.018433 C866.111389,793.054443 867.278015,793.007080 868.443665,793.007080 C933.057739,793.006165 997.671814,793.005188 1062.285889,793.007812 C1068.378662,793.008118 1068.935669,793.885376 1067.631592,799.987061 C1066.846436,803.660889 1066.510132,807.430664 1065.902588,811.584961 z"/>
  <path fill="#F37E2E" opacity="1.000000" stroke="none" d=" M1364.538452,1130.609253 C1361.199585,1138.091797 1357.668579,1145.226562 1353.871460,1152.217163 C1352.798706,1154.192139 1351.702759,1156.127319 1348.440674,1156.117432 C1297.889648,1155.963623 1247.338013,1156.009888 1196.048828,1156.009888 C1200.940186,1147.170044 1205.611572,1138.728027 1210.588623,1130.118896 C1213.355713,1128.622192 1216.050659,1128.758057 1218.707031,1128.757568 C1264.497803,1128.748901 1310.288574,1128.720947 1356.079346,1128.792847 C1358.839478,1128.797241 1361.793457,1128.201660 1364.538452,1130.609253 z"/>
  <path fill="#FACD2D" opacity="1.000000" stroke="none" d=" M951.537537,1211.175537 C954.363342,1212.303345 957.064514,1211.993774 959.712891,1211.994141 C1012.805725,1212.001953 1065.898560,1211.994751 1118.991455,1212.018921 C1121.127319,1212.019775 1123.328369,1211.598999 1125.718506,1212.850342 C1120.668945,1221.390747 1112.641357,1227.192139 1106.075439,1234.366577 C1105.007080,1235.533936 1103.567993,1234.984375 1102.308960,1234.985107 C1052.243042,1235.014893 1002.177185,1234.993652 952.111328,1235.048950 C948.846497,1235.052612 947.637085,1235.025757 948.727783,1230.802979 C950.345276,1224.540527 950.441895,1217.885132 951.537537,1211.175537 z"/>
  <path fill="#F37E2E" opacity="1.000000" stroke="none" d=" M346.945648,1131.666382 C343.865540,1140.057129 339.069183,1147.263916 335.085510,1154.899414 C334.302795,1156.399658 333.175842,1155.984619 332.137543,1155.984253 C282.022766,1155.965576 231.907990,1155.915405 181.793228,1155.860962 C181.648590,1155.860840 181.504105,1155.749023 180.643387,1155.393555 C185.072021,1147.438599 189.464783,1139.547974 194.012299,1131.333862 C198.742706,1127.160645 204.117233,1129.600342 209.051773,1129.418823 C218.606400,1129.067139 228.195358,1129.289551 237.769867,1129.314087 C247.020126,1129.337769 256.270264,1129.319458 265.520447,1129.336182 C274.766968,1129.353027 284.014130,1129.411621 293.259857,1129.356445 C302.509705,1129.301270 311.760559,1129.317993 321.009552,1129.304565 C327.776062,1129.294922 334.549927,1129.169922 341.320221,1129.426636 C343.383240,1129.504883 345.302765,1129.646606 346.945648,1131.666382 z"/>
  <path fill="#284AA4" opacity="1.000000" stroke="none" d=" M1345.063477,662.430603 C1351.417725,654.664734 1357.856567,647.298584 1364.905640,640.488525 C1366.701660,638.753357 1368.447144,637.923096 1371.008179,637.927490 C1415.978149,638.004883 1460.948486,638.031128 1505.918213,637.913208 C1510.598022,637.900940 1510.691406,639.631836 1508.629761,642.778503 C1504.541870,649.017761 1501.744385,655.890198 1498.362305,662.823303 C1495.952026,664.982178 1493.321411,665.222351 1490.619385,665.224915 C1444.573364,665.268799 1398.527344,665.295105 1352.481445,665.188232 C1349.891479,665.182251 1347.042114,665.578064 1345.063477,662.430603 z"/>
  <path fill="#4F2E93" opacity="1.000000" stroke="none" d=" M1673.443848,737.415649 C1676.546875,730.431274 1680.054443,723.897339 1683.313110,717.241516 C1684.805298,714.193909 1686.756958,712.927246 1690.279419,712.934998 C1738.762817,713.041382 1787.246460,713.038086 1835.729980,712.947327 C1839.575562,712.940125 1840.442383,713.721008 1838.415527,717.237488 C1834.718018,723.652649 1831.277832,730.216248 1827.425781,736.877930 C1824.665894,739.804321 1821.333130,739.211060 1818.241455,739.217468 C1785.117798,739.286194 1751.994263,739.252136 1718.870605,739.253235 C1706.220337,739.253662 1693.569824,739.315369 1680.920166,739.204651 C1678.479370,739.183289 1675.872559,739.630737 1673.443848,737.415649 z"/>
  <path fill="#622B92" opacity="1.000000" stroke="none" d=" M1672.976440,737.331299 C1724.149536,737.016113 1775.158325,737.017212 1826.644043,737.028076 C1824.169312,744.898315 1819.924805,752.120728 1815.963989,759.478027 C1815.060669,761.156067 1813.200684,761.019226 1811.506592,761.018799 C1762.571899,761.006409 1713.637085,761.004089 1664.702393,761.023438 C1662.275635,761.024414 1659.901611,761.030273 1662.142090,757.707458 C1666.403809,751.386475 1668.969482,744.180603 1672.976440,737.331299 z"/>
  <path fill="#662A91" opacity="1.000000" stroke="none" d=" M870.996948,742.315186 C932.416199,742.003662 993.668213,742.002563 1055.377686,742.003113 C1055.185059,747.038635 1054.695801,752.101013 1053.810181,757.093140 C1053.426758,759.254456 1052.685669,761.113098 1049.368774,761.105347 C987.301147,760.959656 925.233093,760.990234 863.165161,760.969849 C862.716187,760.969666 862.267273,760.775085 861.369507,760.567566 C864.453979,754.399597 866.827332,748.104736 870.996948,742.315186 z"/>
  <path fill="#91218D" opacity="1.000000" stroke="none" d=" M1651.165649,816.373352 C1653.777344,808.435547 1658.512695,801.884766 1662.110107,794.732544 C1663.303223,792.360718 1665.492065,793.040527 1667.378662,793.036377 C1684.675049,792.998047 1701.971558,793.013550 1719.267944,793.013550 C1750.201904,793.013489 1781.135864,793.013489 1812.069824,793.013550 C1813.882080,793.013550 1815.694214,793.013611 1818.567627,793.013611 C1814.021362,801.370789 1809.841187,809.054932 1805.358643,816.918213 C1802.383911,818.235107 1799.559814,818.253052 1796.726318,818.252991 C1751.184448,818.252075 1705.642456,818.276062 1660.100586,818.209717 C1657.181274,818.205444 1654.066284,818.847351 1651.165649,816.373352 z"/>
  <path fill="#A41E8C" opacity="1.000000" stroke="none" d=" M1650.591309,816.144775 C1699.921997,815.974548 1748.960083,815.983032 1797.998291,816.021118 C1800.132202,816.022827 1802.329712,815.604980 1804.721191,816.844360 C1802.112305,824.218811 1797.917358,830.673706 1794.304077,837.438782 C1793.463989,839.011353 1792.410522,839.006226 1791.095215,839.006287 C1740.354370,839.007751 1689.613647,839.007507 1637.935547,839.007507 C1642.245117,831.102112 1646.271973,823.715515 1650.591309,816.144775 z"/>
  <path fill="#F0672E" opacity="1.000000" stroke="none" d=" M347.430023,1131.873047 C339.601044,1131.468750 332.080658,1131.664917 324.546967,1131.776855 C315.231567,1131.915527 305.908813,1131.445190 296.589172,1131.442383 C287.274567,1131.439575 277.959778,1131.797607 268.645294,1131.787598 C262.917908,1131.781372 257.189209,1131.805420 251.468430,1131.794922 C243.457855,1131.780273 235.431213,1132.012817 227.443573,1131.777954 C216.637985,1131.460083 205.800446,1132.308350 194.595215,1131.008423 C197.397095,1124.804321 200.727264,1118.646973 203.794357,1112.361450 C204.679199,1110.548218 205.764938,1109.992554 207.606293,1109.993286 C257.892212,1110.015137 308.178131,1110.010742 359.446808,1110.010742 C355.345276,1117.612549 351.542084,1124.661499 347.430023,1131.873047 z"/>
  <path fill="#5C2C92" opacity="1.000000" stroke="none" d=" M1480.579468,730.570068 C1477.945068,736.457886 1475.057861,741.914124 1472.003174,747.686035 C1469.657593,749.796143 1467.105347,750.235352 1464.361694,750.236511 C1407.432129,750.260742 1350.502563,750.301575 1293.572998,750.184509 C1290.955688,750.179138 1288.141602,750.451599 1286.084961,747.416992 C1289.734497,740.572998 1295.991089,736.263000 1300.590332,730.111084 C1303.848999,728.214478 1307.067017,727.733826 1310.467773,727.734924 C1364.177734,727.753113 1417.887695,727.712708 1471.597534,727.807983 C1474.629517,727.813354 1478.055542,726.999878 1480.579468,730.570068 z"/>
  <path fill="#2D3F9D" opacity="1.000000" stroke="none" d=" M1047.490967,658.626465 C1047.183472,665.191284 1046.554688,671.395447 1045.863892,677.592651 C1045.692261,679.131592 1044.662231,679.890442 1043.132080,679.942993 C1042.135376,679.977173 1041.137329,679.986206 1040.139893,679.986206 C989.588257,679.988159 939.036560,679.987854 888.484924,679.987854 C887.329163,679.987854 886.173401,679.987854 884.304626,679.987854 C888.322876,672.885986 892.075684,666.253113 895.997314,659.304565 C898.348877,657.201111 900.902710,656.764648 903.646301,656.763000 C949.433411,656.734558 995.220581,656.709106 1041.007690,656.807495 C1043.127075,656.812012 1045.395264,656.547119 1047.490967,658.626465 z"/>
  <path fill="#D01A79" opacity="1.000000" stroke="none" d=" M1626.640625,897.069214 C1628.968872,898.607178 1631.402832,897.972656 1633.670776,897.974304 C1680.110718,898.008545 1726.550537,897.994080 1772.990479,898.018921 C1775.126831,898.020081 1777.327637,897.599487 1779.719116,898.847961 C1778.043701,905.751648 1773.559448,911.141968 1770.746460,917.387207 C1769.665405,919.787354 1767.322021,918.971680 1765.444458,918.973450 C1729.146973,919.006958 1692.849365,918.998291 1656.551880,918.998352 C1644.397217,918.998413 1632.242432,919.019409 1620.088013,918.972839 C1618.502197,918.966797 1616.821899,919.431824 1614.991211,918.333618 C1618.790649,911.268066 1622.561035,904.256287 1626.640625,897.069214 z"/>
  <path fill="#F0672E" opacity="1.000000" stroke="none" d=" M1364.989258,1130.692627 C1316.076294,1131.007812 1267.320923,1131.007202 1218.565674,1130.989502 C1216.252686,1130.988647 1213.891357,1131.302856 1211.284668,1130.120117 C1213.417969,1123.579346 1217.184082,1117.873169 1220.465942,1111.903931 C1221.358276,1110.280884 1222.368774,1109.989746 1223.952148,1109.991699 C1274.341431,1110.055542 1324.730591,1110.093994 1375.119873,1110.142212 C1375.276123,1110.142334 1375.432495,1110.228394 1376.102173,1110.425293 C1372.799805,1117.333496 1369.318115,1124.032715 1364.989258,1130.692627 z"/>
  <path fill="#284CA5" opacity="1.000000" stroke="none" d=" M1047.892944,658.571289 C997.583679,658.991394 947.332214,658.993103 896.623413,658.991821 C899.129883,652.916992 902.146057,646.869690 905.028015,640.759216 C905.983521,638.733337 907.231079,637.932007 909.562012,637.935608 C955.528625,638.006653 1001.495422,638.023315 1047.461914,637.921265 C1050.979736,637.913513 1051.352173,639.528442 1050.874756,642.200867 C1049.924316,647.522522 1048.928101,652.835999 1047.892944,658.571289 z"/>
  <path fill="#CB1785" opacity="1.000000" stroke="none" d=" M525.085938,891.421204 C528.969543,884.632812 534.706360,879.561951 538.552551,873.042969 C539.246094,871.867493 540.515320,872.001282 541.680237,872.001892 C592.067871,872.026062 642.455444,872.047241 692.843079,872.086792 C693.113708,872.087036 693.384033,872.342407 694.106995,872.706482 C689.618286,879.099121 685.177734,885.423279 680.426208,891.894897 C677.970520,893.951111 675.350098,894.223206 672.645630,894.225403 C625.951599,894.262817 579.257568,894.304749 532.563599,894.184387 C529.950378,894.177673 527.142212,894.447693 525.085938,891.421204 z"/>
  <path fill="#F8B52D" opacity="1.000000" stroke="none" d=" M892.437195,1208.900879 C841.357239,1209.017456 790.598633,1208.997314 739.364380,1208.966309 C741.319153,1202.720703 745.096619,1197.193848 748.155823,1191.290039 C749.088013,1189.491089 750.339783,1188.947754 752.412231,1188.950928 C801.895325,1189.026367 851.378418,1189.009888 900.861572,1189.021240 C901.478882,1189.021362 902.096191,1189.165771 903.349365,1189.322021 C899.689148,1196.041382 896.223877,1202.402710 892.437195,1208.900879 z"/>
  <path fill="#4F2E93" opacity="1.000000" stroke="none" d=" M1481.001221,730.686157 C1478.117188,730.061890 1475.312866,729.984619 1472.469604,729.985352 C1415.593018,730.000061 1358.716553,729.986145 1301.363525,729.967224 C1303.106934,727.305786 1305.462402,724.755798 1307.519897,721.984802 C1312.633057,715.098267 1318.994995,712.690735 1327.884644,712.772156 C1379.928345,713.249023 1431.978638,712.996155 1484.026733,713.046936 C1485.901733,713.048767 1488.506592,711.982910 1489.505859,713.890442 C1490.307007,715.420105 1488.099731,716.947815 1487.260864,718.499023 C1485.145752,722.410339 1483.189941,726.407776 1481.001221,730.686157 z"/>
  <path fill="#F3832E" opacity="1.000000" stroke="none" d=" M1710.580322,1137.578369 C1708.063110,1143.330322 1705.124146,1148.570801 1702.606812,1154.006592 C1701.551514,1156.285400 1699.976440,1156.003662 1698.227051,1156.003906 C1681.593750,1156.006226 1664.960449,1156.005127 1648.327148,1156.005127 C1616.391235,1156.005127 1584.455444,1156.005127 1552.519531,1156.005127 C1550.896118,1156.005127 1549.272583,1156.005127 1547.091553,1156.005127 C1550.649170,1149.468018 1553.963013,1143.378662 1557.582764,1137.123291 C1559.866333,1135.137817 1562.286377,1134.782593 1564.847046,1134.780029 C1611.096313,1134.733154 1657.345459,1134.691284 1703.594604,1134.824463 C1706.050415,1134.831543 1708.691406,1134.619263 1710.580322,1137.578369 z"/>
  <path fill="#FBD02D" opacity="1.000000" stroke="none" d=" M1337.832886,1216.622437 C1335.369507,1222.526611 1332.670654,1228.042114 1329.847656,1233.493530 C1328.671265,1235.765259 1326.375122,1234.984009 1324.489990,1234.985107 C1278.412476,1235.013306 1232.334839,1235.007202 1186.257324,1235.007202 C1182.432617,1235.007202 1178.608032,1235.007202 1174.026245,1235.007202 C1177.448242,1228.973877 1180.655762,1223.318481 1184.015137,1217.335693 C1186.336914,1215.201660 1188.888794,1214.765137 1191.630615,1214.763306 C1238.213257,1214.733887 1284.795776,1214.705688 1331.378418,1214.807739 C1333.502808,1214.812500 1335.755249,1214.588135 1337.832886,1216.622437 z"/>
  <path fill="#99208D" opacity="1.000000" stroke="none" d=" M536.950684,807.410278 C592.644592,807.033081 648.403809,807.026917 704.639343,807.029907 C703.748169,812.704407 701.373962,817.990540 698.916504,823.640747 C696.656433,825.796692 694.104797,826.235352 691.363098,826.237000 C643.114319,826.266052 594.865479,826.294556 546.616760,826.192078 C544.492310,826.187561 542.239380,826.411560 540.163818,824.373718 C539.895203,818.394409 541.220764,812.598511 536.950684,807.410278 z"/>
  <path fill="#F3832E" opacity="1.000000" stroke="none" d=" M940.096375,1144.423462 C1014.588196,1144.002686 1089.011475,1143.999146 1163.434814,1144.010376 C1165.749268,1144.010620 1168.111816,1143.698730 1170.719971,1144.881226 C1168.119629,1148.148926 1164.991333,1151.130615 1162.188965,1154.392212 C1160.444336,1156.422607 1158.353516,1155.991699 1156.270142,1155.992310 C1102.864990,1156.008545 1049.459839,1156.005127 996.054688,1156.005127 C976.932251,1156.005127 957.809875,1156.005127 938.452332,1156.005127 C939.001892,1152.111450 939.514893,1148.477173 940.096375,1144.423462 z"/>
  <path fill="#2D3F9D" opacity="1.000000" stroke="none" d=" M1344.597046,662.101807 C1347.371216,663.303833 1350.074463,662.990845 1352.724609,662.991577 C1400.859985,663.005127 1448.995239,663.008301 1497.604736,663.021057 C1495.473022,667.769409 1492.934814,672.549438 1490.225464,677.230530 C1489.252197,678.912048 1488.005249,680.067383 1485.553345,680.062256 C1433.779419,679.954224 1382.005493,679.973938 1330.231445,679.953247 C1329.791870,679.953064 1329.352417,679.743408 1328.594727,679.550598 C1332.803955,672.629700 1338.992310,667.829956 1344.597046,662.101807 z"/>
  <path fill="#A51D8B" opacity="1.000000" stroke="none" d=" M435.009033,822.556030 C432.991516,827.163147 430.881256,831.240051 428.939117,835.395508 C427.788483,837.857300 426.389130,839.097412 423.325562,839.089905 C373.276031,838.967224 323.226135,838.994690 273.176300,838.981201 C272.850098,838.981140 272.523926,838.882568 271.816467,838.768494 C274.222992,832.666016 277.659485,827.219727 281.007446,821.330322 C283.222565,819.545349 285.605896,819.760376 287.918793,819.760071 C334.197998,819.754089 380.477234,819.709473 426.756317,819.810303 C429.612244,819.816528 432.890533,818.973022 435.009033,822.556030 z"/>
  <path fill="#FBD02D" opacity="1.000000" stroke="none" d=" M320.539429,1217.604980 C318.562164,1222.273804 316.372040,1226.586792 313.984497,1230.787598 C312.868073,1232.751831 312.223785,1235.081299 308.938934,1235.074463 C259.050262,1234.969482 209.161301,1234.991699 159.272400,1234.973022 C158.960037,1234.972900 158.647736,1234.817871 157.686401,1234.563110 C160.923935,1228.700073 164.088562,1222.968994 167.573669,1217.093506 C170.356552,1215.623901 173.051010,1215.757935 175.707504,1215.757446 C221.164444,1215.749756 266.621399,1215.721191 312.078247,1215.792847 C314.838501,1215.797241 317.791962,1215.202148 320.539429,1217.604980 z"/>
  <path fill="#F8B52D" opacity="1.000000" stroke="none" d=" M1540.959961,1205.388184 C1542.373291,1199.639648 1546.278320,1195.651489 1548.167603,1190.613403 C1549.074829,1188.194092 1551.551025,1189.032715 1553.428101,1189.031128 C1589.510620,1189.000366 1625.593140,1189.008423 1661.675659,1189.008423 C1675.305176,1189.008423 1688.934814,1189.008423 1703.232910,1189.008423 C1699.920288,1195.196289 1696.831177,1200.966553 1693.425293,1206.891602 C1690.651978,1208.375000 1687.961304,1208.242432 1685.308960,1208.242798 C1640.088135,1208.250488 1594.867310,1208.291382 1549.646606,1208.187866 C1546.649536,1208.180908 1543.182739,1209.162964 1540.959961,1205.388184 z"/>
  <path fill="#DFE032" opacity="1.000000" stroke="none" d=" M152.315933,1284.168213 C153.585358,1278.406250 157.663315,1274.304077 159.043442,1268.909668 C159.576447,1266.826294 161.405334,1266.983887 163.088135,1266.984253 C212.347427,1266.993042 261.606750,1267.019287 310.865906,1266.939697 C314.947174,1266.933105 314.378418,1268.603516 312.973358,1271.055786 C310.555389,1275.275757 308.143372,1279.499146 305.419861,1283.884033 C303.127136,1285.864258 300.701538,1286.219482 298.138397,1286.222534 C251.648026,1286.277954 205.157639,1286.303711 158.667358,1286.186401 C156.537170,1286.181030 154.275879,1286.367920 152.315933,1284.168213 z"/>
  <path fill="#F2732E" opacity="1.000000" stroke="none" d=" M756.164734,1141.372192 C757.641968,1134.883301 762.127502,1130.180542 764.579468,1124.128174 C767.032837,1122.045776 769.655334,1121.776367 772.360779,1121.774292 C818.578552,1121.739868 864.796326,1121.689331 911.014038,1121.820923 C913.455933,1121.827881 916.113159,1121.559692 917.931030,1124.573120 C915.049988,1130.794556 911.988037,1136.547363 908.679565,1142.579590 C905.778076,1143.052124 903.128418,1143.269531 900.458984,1143.268188 C855.676880,1143.246094 810.894714,1143.280396 766.112732,1143.209595 C762.865051,1143.204468 759.409424,1143.984741 756.164734,1141.372192 z"/>
  <path fill="#F9BF2D" opacity="1.000000" stroke="none" d=" M320.989441,1217.679565 C272.410431,1218.004517 223.987686,1218.005737 175.564941,1217.989502 C173.251816,1217.988770 170.890564,1218.298706 168.284180,1217.116821 C169.614639,1210.854004 173.950348,1206.071777 176.579895,1200.112671 C179.356735,1198.622925 182.051407,1198.757935 184.707733,1198.757568 C230.164078,1198.749756 275.620453,1198.721191 321.076691,1198.792847 C323.837006,1198.797241 326.790253,1198.202637 329.538391,1200.603638 C327.581970,1206.797241 323.996674,1211.879761 320.989441,1217.679565 z"/>
  <path fill="#FAC52D" opacity="1.000000" stroke="none" d=" M1540.637817,1205.052490 C1542.970337,1206.614014 1545.404663,1205.972412 1547.670654,1205.974121 C1593.592651,1206.008545 1639.514648,1205.996460 1685.436646,1206.010498 C1687.749634,1206.011230 1690.110474,1205.703491 1692.718018,1206.879883 C1691.401611,1212.638062 1687.655762,1217.169067 1684.994629,1222.672363 C1682.660278,1224.792114 1680.108643,1225.235229 1677.363281,1225.236450 C1631.236816,1225.256104 1585.110229,1225.308350 1538.983887,1225.179688 C1536.531738,1225.172852 1533.881348,1225.415283 1532.054199,1222.426758 C1533.789429,1215.916992 1537.610229,1210.846313 1540.637817,1205.052490 z"/>
  <path fill="#CF197C" opacity="1.000000" stroke="none" d=" M524.577393,891.099365 C527.772766,891.875793 530.738037,892.022705 533.756531,892.021301 C582.225403,891.998718 630.694275,892.015015 679.639221,892.032471 C677.468567,898.389282 672.012329,902.813599 668.411011,908.876831 C665.638062,907.699158 662.937683,908.006104 660.289246,908.005737 C610.862610,907.997925 561.435974,908.005615 512.009338,907.981079 C509.873657,907.980042 507.672882,908.400940 505.283264,907.148987 C511.840912,902.229187 518.113220,896.801758 524.577393,891.099365 z"/>
  <path fill="#284CA5" opacity="1.000000" stroke="none" d=" M1852.396973,654.861572 C1849.641113,653.696350 1846.939453,654.009094 1844.291748,654.008606 C1798.193970,654.000183 1752.096069,654.008484 1705.998291,653.983643 C1703.862305,653.982483 1701.661865,654.402222 1699.269531,653.152893 C1700.960327,648.590942 1703.036621,644.306274 1704.994019,639.967957 C1706.213257,637.266052 1708.570801,638.014038 1710.599487,638.011597 C1741.020142,637.974854 1771.440918,637.986023 1801.861572,637.986023 C1819.981079,637.986023 1838.100952,638.052917 1856.219604,637.932861 C1860.107544,637.907104 1861.960938,638.266724 1859.241943,642.547058 C1856.784546,646.415405 1854.847778,650.614502 1852.396973,654.861572 z"/>
  <path fill="#99208D" opacity="1.000000" stroke="none" d=" M435.323181,822.858765 C432.984344,821.404663 430.556152,822.027161 428.283081,822.025452 C382.142548,821.991455 336.001953,822.000305 289.861389,821.998962 C287.201508,821.998901 284.519897,822.194214 281.566376,821.096436 C283.862305,815.770203 286.556335,810.527649 289.551331,805.104858 C292.316315,806.300659 295.017120,805.995728 297.665009,805.996216 C346.081848,806.004822 394.498657,806.004150 443.372894,806.007080 C441.091949,811.560669 438.353577,817.112427 435.323181,822.858765 z"/>
  <path fill="#F9BF2D" opacity="1.000000" stroke="none" d=" M1338.435059,1216.883667 C1287.106567,1217.026123 1236.094727,1217.015259 1184.624756,1217.006470 C1187.198242,1211.431641 1190.229736,1205.854736 1193.574341,1200.117432 C1195.229492,1198.839844 1196.726440,1198.511230 1198.504272,1198.529175 C1244.611816,1198.994873 1290.721191,1198.605469 1336.829468,1198.791382 C1340.075928,1198.804443 1343.533813,1198.008545 1346.765747,1200.648926 C1344.280029,1206.286743 1341.515869,1211.508545 1338.435059,1216.883667 z"/>
  <path fill="#662A91" opacity="1.000000" stroke="none" d=" M1285.587158,747.108215 C1288.768677,747.875305 1291.730347,748.020020 1294.745361,748.018616 C1353.470459,747.991150 1412.195679,747.999512 1471.378174,748.001099 C1469.033691,758.112122 1463.087280,761.464050 1452.040894,761.330627 C1394.418701,760.634521 1336.783691,761.010925 1279.153076,760.978760 C1277.572266,760.977905 1275.318481,761.798035 1274.552734,760.297363 C1273.656616,758.541199 1276.215088,757.814026 1276.997925,756.464417 C1279.119019,752.807739 1282.420410,750.229004 1285.587158,747.108215 z"/>
  <path fill="#F16F2E" opacity="1.000000" stroke="none" d=" M1710.989746,1137.687256 C1708.120117,1137.058472 1705.316284,1136.987061 1702.474121,1136.987915 C1654.596069,1137.002808 1606.718140,1136.987427 1558.364380,1136.968018 C1559.554810,1131.342407 1563.384033,1126.853027 1566.010254,1121.332153 C1568.339966,1119.197632 1570.895020,1118.765381 1573.638916,1118.764160 C1619.762329,1118.743408 1665.885864,1118.691772 1712.009155,1118.820312 C1714.460815,1118.827148 1717.111328,1118.583130 1718.940186,1121.569824 C1717.345093,1127.611938 1713.952515,1132.335083 1710.989746,1137.687256 z"/>
  <path fill="#C3D836" opacity="1.000000" stroke="none" d=" M151.789307,1283.870483 C155.062119,1283.814575 158.050613,1283.986572 161.039185,1283.988159 C208.745987,1284.013306 256.452789,1284.016602 304.635193,1284.035889 C303.123779,1289.405884 299.557190,1293.906616 297.025360,1298.964844 C296.272186,1300.469482 295.072968,1299.963623 294.045563,1299.963379 C243.982086,1299.955811 193.918625,1299.912842 143.855148,1299.868164 C143.699707,1299.867920 143.544296,1299.782837 142.976273,1299.616943 C145.211914,1294.042480 148.610535,1289.161011 151.789307,1283.870483 z"/>
  <path fill="#A51D8B" opacity="1.000000" stroke="none" d=" M539.562866,824.191345 C592.559143,823.973145 645.239136,823.987671 698.376892,824.003784 C697.255066,827.597656 695.252502,831.073486 694.221375,834.816956 C693.292603,838.189087 691.780029,839.095337 688.377686,839.087341 C639.216492,838.971680 590.054871,838.951904 540.893921,839.103760 C536.448303,839.117493 535.180481,838.159363 537.034912,833.962402 C538.366760,830.948181 538.945374,827.705200 539.562866,824.191345 z"/>
  <path fill="#F3832E" opacity="1.000000" stroke="none" d=" M755.575439,1141.125977 C804.130371,1140.972534 852.378113,1140.976074 900.625732,1141.029663 C903.052124,1141.032349 905.656067,1140.340698 908.133606,1142.500000 C906.359314,1146.719238 904.104248,1150.496216 902.277588,1154.470093 C901.120728,1156.986450 899.174500,1155.944336 897.600952,1155.950928 C877.780151,1156.033569 857.958862,1156.005127 838.137695,1156.005127 C809.988342,1156.005127 781.838928,1156.005127 753.689575,1156.005127 C751.902283,1156.005127 750.115051,1156.005127 748.002075,1156.005127 C749.508179,1150.281372 753.126648,1146.145142 755.575439,1141.125977 z"/>
  <path fill="#F0652E" opacity="1.000000" stroke="none" d=" M918.422852,1124.874390 C915.632935,1123.700806 912.929688,1124.006836 910.278503,1124.006104 C862.132141,1123.990723 813.985718,1123.985474 765.363525,1123.968018 C766.947632,1119.904541 769.060852,1115.877075 771.047241,1111.788208 C772.231689,1109.350098 774.377014,1110.032959 776.254395,1110.028320 C792.082520,1109.989014 807.910828,1110.005859 823.739075,1110.005859 C855.895386,1110.005859 888.051697,1110.005859 920.208008,1110.005859 C922.006226,1110.005859 923.804504,1110.005859 926.071167,1110.005859 C923.472900,1115.211670 921.103271,1119.959473 918.422852,1124.874390 z"/>
  <path fill="#DFE032" opacity="1.000000" stroke="none" d=" M1170.457764,1279.399414 C1170.178711,1278.832520 1170.162476,1278.655762 1170.215210,1278.502808 C1173.234497,1269.742920 1178.527222,1266.510498 1188.555176,1266.671021 C1234.145996,1267.401123 1279.755127,1266.988647 1325.357666,1266.993896 C1330.794312,1266.994507 1331.187866,1267.634277 1328.804810,1272.507812 C1327.521973,1275.131470 1326.209106,1277.740479 1324.631714,1280.620483 C1321.695435,1281.059692 1319.042725,1281.269653 1316.371826,1281.268311 C1271.056274,1281.244263 1225.740845,1281.280029 1180.425415,1281.207520 C1177.177856,1281.202393 1173.719116,1282.003784 1170.457764,1279.399414 z"/>
  <path fill="#FBD02D" opacity="1.000000" stroke="none" d=" M1531.564697,1222.096558 C1534.359131,1223.296997 1537.058228,1222.991943 1539.705444,1222.992310 C1587.777954,1223.000610 1635.850342,1222.998779 1684.381348,1222.999512 C1683.010498,1226.383057 1680.902344,1229.651245 1679.440186,1233.186401 C1678.278687,1235.995117 1676.197632,1234.957886 1674.475708,1234.960571 C1636.386963,1235.021606 1598.298218,1235.007202 1560.209351,1235.007202 C1548.401978,1235.007202 1536.594604,1235.007202 1524.266968,1235.007202 C1526.697021,1230.560425 1528.970581,1226.400024 1531.564697,1222.096558 z"/>
  <path fill="#D1DC34" opacity="1.000000" stroke="none" d=" M1517.058105,1287.422363 C1517.985840,1282.186035 1521.815430,1278.784302 1523.620117,1274.040527 C1528.091187,1273.399292 1532.249512,1273.771240 1536.401489,1273.768921 C1579.968262,1273.744385 1623.535156,1273.726685 1667.101807,1273.795776 C1670.180664,1273.800659 1673.466553,1273.059448 1676.548340,1275.599121 C1674.453735,1280.258545 1672.066406,1284.520020 1669.362915,1288.947021 C1665.986816,1289.953125 1662.882690,1290.273804 1659.698730,1290.271362 C1615.454102,1290.238159 1571.209229,1290.287720 1526.964844,1290.185791 C1523.638550,1290.178223 1519.844116,1291.295654 1517.058105,1287.422363 z"/>
  <path fill="#C3D836" opacity="1.000000" stroke="none" d=" M1516.567261,1287.113770 C1519.354858,1288.299805 1522.054565,1287.994141 1524.703125,1287.994507 C1570.465698,1288.002075 1616.228271,1287.993896 1661.990845,1288.019287 C1664.126099,1288.020386 1666.327271,1287.598633 1668.714600,1288.856445 C1666.379395,1298.686523 1659.961426,1300.355713 1650.547363,1300.244385 C1603.682251,1299.690552 1556.807129,1299.991455 1509.150391,1299.991455 C1511.661499,1295.494873 1513.958252,1291.382080 1516.567261,1287.113770 z"/>
  <path fill="#D1DC34" opacity="1.000000" stroke="none" d=" M874.869263,1278.583740 C872.969849,1282.930542 870.848206,1286.827759 868.414062,1290.886841 C865.640381,1292.378296 862.945557,1292.241821 860.289429,1292.242310 C814.834290,1292.250610 769.379211,1292.278687 723.924133,1292.207153 C721.163940,1292.202759 718.210693,1292.797363 715.463501,1290.395020 C717.196594,1286.086548 719.223083,1282.180176 721.566406,1278.116943 C724.452332,1276.163940 727.334534,1275.739258 730.412598,1275.739990 C775.733643,1275.750854 821.054688,1275.707886 866.375610,1275.808350 C869.276428,1275.814819 872.504578,1275.194458 874.869263,1278.583740 z"/>
  <path fill="#F8B02D" opacity="1.000000" stroke="none" d=" M329.986084,1200.684204 C281.410034,1201.003540 232.987839,1201.005127 184.565643,1200.989502 C182.252548,1200.988770 179.891327,1201.300415 177.284912,1200.118286 C177.734131,1196.207153 180.628845,1193.536621 182.041992,1190.073364 C182.903046,1187.963257 184.965729,1189.058594 186.433456,1189.054443 C211.723160,1188.983765 237.013107,1189.003540 262.303009,1189.003540 C286.746460,1189.003540 311.189941,1189.003540 336.108185,1189.003540 C334.349091,1193.233154 333.028137,1197.185791 329.986084,1200.684204 z"/>
  <path fill="#F8B02D" opacity="1.000000" stroke="none" d=" M1347.360352,1200.893677 C1299.407593,1201.043213 1251.770996,1201.010498 1204.134521,1201.025024 C1200.950195,1201.026001 1197.823853,1200.826050 1194.314941,1199.991333 C1194.740845,1196.217773 1197.625122,1193.539551 1199.040527,1190.074707 C1199.903320,1187.962646 1201.964844,1189.058594 1203.432617,1189.054443 C1228.395264,1188.983521 1253.358032,1189.003662 1278.320801,1189.003662 C1301.286621,1189.003662 1324.252319,1189.003662 1347.218140,1189.003540 C1349.028564,1189.003540 1350.838989,1189.003540 1353.354980,1189.003540 C1351.299683,1193.245361 1349.488159,1196.983887 1347.360352,1200.893677 z"/>
  <path fill="#C3D836" opacity="1.000000" stroke="none" d=" M1319.505615,1288.573120 C1319.709595,1289.277100 1319.618652,1289.580444 1319.526001,1289.883301 C1316.459106,1299.898438 1308.960693,1300.254028 1300.001221,1300.174072 C1255.282715,1299.774780 1210.558716,1299.991455 1165.836670,1299.991455 C1164.019531,1299.991455 1162.202393,1299.991455 1159.713745,1299.991455 C1161.701660,1295.786011 1163.475464,1292.033569 1165.565674,1288.120361 C1167.391357,1286.622437 1169.218994,1286.699097 1171.073242,1286.702881 C1217.557007,1286.798584 1264.040649,1286.702637 1310.524292,1286.791382 C1313.450439,1286.796997 1316.569214,1286.141113 1319.505615,1288.573120 z"/>
  <path fill="#DFE032" opacity="1.000000" stroke="none" d=" M875.403137,1278.864258 C872.200256,1278.112305 869.233337,1277.978271 866.216553,1277.979614 C818.422852,1278.001587 770.629089,1277.985962 722.359375,1277.969604 C722.051208,1277.678589 722.315796,1277.415161 722.372803,1277.112549 C724.204956,1267.383179 730.776855,1266.729126 739.271729,1266.803223 C784.825317,1267.200806 830.384216,1266.989990 875.941284,1266.992065 C881.909241,1266.992432 881.878052,1266.982422 878.994019,1272.177979 C877.814697,1274.302490 876.802917,1276.520020 875.403137,1278.864258 z"/>
  <path fill="#F0652E" opacity="1.000000" stroke="none" d=" M1719.428101,1121.898438 C1716.635254,1120.701050 1713.936157,1121.007202 1711.289429,1121.006836 C1663.221069,1120.999878 1615.152588,1121.003418 1566.626465,1121.006836 C1567.781738,1118.018433 1569.565430,1115.104858 1570.957275,1112.014771 C1572.208374,1109.237549 1574.496460,1110.036621 1576.493652,1110.034546 C1613.562256,1109.995605 1650.630737,1110.005859 1687.699341,1110.005859 C1700.163452,1110.005859 1712.627563,1110.005859 1725.513428,1110.005859 C1724.107056,1114.372070 1722.137695,1118.159912 1719.428101,1121.898438 z"/>
  <path fill="#D1DC34" opacity="1.000000" stroke="none" d=" M1319.965088,1288.660889 C1270.901367,1288.982422 1222.001587,1288.986816 1173.101685,1289.012695 C1170.919189,1289.013916 1168.786621,1288.847046 1166.299805,1288.042358 C1166.701538,1284.949219 1168.318359,1282.319702 1170.007202,1279.324219 C1219.134644,1278.998779 1268.106689,1278.991089 1317.078613,1279.026489 C1319.344360,1279.028076 1321.785767,1278.396118 1324.068726,1280.520508 C1322.945312,1283.372559 1321.537109,1285.860229 1319.965088,1288.660889 z"/>
  <path fill="#C3D836" opacity="1.000000" stroke="none" d=" M715.015991,1290.312378 C763.590820,1289.995361 812.011475,1289.994263 860.432190,1290.010498 C862.744995,1290.011353 865.106323,1289.696045 867.712158,1290.880371 C864.987244,1299.690186 864.572266,1299.991455 855.782898,1299.991455 C808.909180,1299.991455 762.035522,1299.991455 715.161804,1299.991455 C713.354004,1299.991455 711.546204,1299.991455 709.047119,1299.991455 C711.636230,1296.849731 712.156799,1293.130493 715.015991,1290.312378 z"/>
  <path fill="#DFE032" opacity="1.000000" stroke="none" d=" M962.505005,1279.354004 C961.261108,1275.487427 963.411316,1272.281250 963.091125,1268.761841 C962.832520,1265.919800 965.422363,1267.052368 966.768005,1267.044189 C980.901062,1266.958374 995.034851,1266.991211 1009.168396,1266.991089 C1035.606445,1266.991089 1062.044434,1266.991089 1088.482544,1266.991089 C1090.236694,1266.991089 1091.990723,1266.990967 1094.996582,1266.990967 C1090.692261,1271.869507 1087.180176,1275.850220 1083.356689,1279.969971 C1079.970581,1280.849854 1076.879517,1281.277710 1073.689087,1281.273926 C1039.611450,1281.233398 1005.533691,1281.278198 971.456116,1281.204102 C968.548157,1281.197876 965.414856,1281.912720 962.505005,1279.354004 z"/>
  <path fill="#DFE032" opacity="1.000000" stroke="none" d=" M1676.994873,1275.665039 C1628.211304,1275.999634 1579.581787,1276.010010 1530.952271,1275.979492 C1528.700806,1275.978149 1526.216309,1276.652588 1524.167847,1274.209351 C1525.035278,1269.043457 1527.153076,1266.761230 1533.010742,1266.802612 C1580.503784,1267.138184 1628.000366,1266.991089 1675.495850,1266.991089 C1677.258179,1266.991089 1679.020508,1266.990967 1681.506470,1266.990967 C1679.803223,1270.251343 1678.476074,1272.792236 1676.994873,1275.665039 z"/>
  <path fill="#C3D836" opacity="1.000000" stroke="none" d=" M1074.043701,1289.607544 C1071.410278,1292.850098 1068.696411,1295.518311 1066.175537,1298.357910 C1064.921875,1299.769897 1063.518066,1300.016357 1061.783569,1300.014526 C1028.205078,1299.980225 994.626648,1299.986694 961.048218,1299.974243 C960.561035,1299.973999 960.073853,1299.839844 959.405640,1299.741577 C960.970703,1296.507935 958.855408,1292.880615 960.979980,1289.366699 C962.620239,1286.964355 964.801636,1286.830566 966.988892,1286.822754 C1000.769043,1286.703247 1034.549194,1286.679321 1068.329224,1286.844360 C1070.474365,1286.854858 1072.742676,1286.829102 1074.043701,1289.607544 z"/>
  <path fill="#D1DC34" opacity="1.000000" stroke="none" d=" M1074.365479,1289.961670 C1072.199585,1288.479492 1069.941284,1289.022339 1067.833008,1289.020508 C1032.583008,1288.990723 997.332947,1288.997803 961.624878,1288.994873 C960.623413,1285.859619 961.129272,1282.823120 962.090210,1279.406616 C1000.107849,1278.994385 1038.048584,1278.989990 1075.989258,1279.019287 C1078.124634,1279.020874 1080.325439,1278.597656 1082.713379,1279.852783 C1080.259033,1283.343262 1077.472778,1286.577759 1074.365479,1289.961670 z"/>
  <path fill="#000000" opacity="1.000000" stroke="none" d=" M1221.474976,1072.741089 C1220.345703,1072.571167 1220.543091,1071.950806 1221.071533,1071.696045 C1222.044067,1071.226929 1221.706177,1072.125610 1221.474976,1072.741089 z"/>
</svg>